{"title":"Shadow of a Doubt(1943)Mp-4[DaScubaDude]","uid":12406008,"size":1321147866,"categoryP":"video","categoryS":"movies","magnet":"?xt=urn:btih:f3f62c76012e64c1bd16f2bea9698b8aa7d8c31a&amp;dn=Shadow+of+a+Doubt%281943%29Mp-4%5BDaScubaDude%5D&amp;tr=udp%3A%2F%2Ftracker.openbittorrent.com%3A80&amp;tr=udp%3A%2F%2Fopen.demonii.com%3A1337&amp;tr=udp%3A%2F%2Ftracker.coppersurfer.tk%3A6969&amp;tr=udp%3A%2F%2Fexodus.desync.com%3A6969","seeders":1,"leechers":0,"uploader":"dascuba","files":1,"time":1442094487,"description":"Shadow of a Doubt (1943)\nApproved  |  108 min  |  Thriller  |  15 January 1943 (USA)\n8.0 Your rating:   -/10   Ratings: 8.0/10 from 42,386 users   \nReviews: 230 user | 117 critic\nA young woman discovers her visiting &quot;Uncle Charlie&quot; may not be the man he seems to be.\n\nDirector: Alfred Hitchcock\nWriters: Thornton Wilder (screenplay), Sally Benson (screenplay), 2 more credits Â»\nStars: Teresa Wright, Joseph Cotten, Macdonald Carey\n\nGeneral\nComplete name                  : C:Shadow of a DoubtSHADOW_OF_A_DOUBT_Title1.mp4\nFormat                                   : MPEG-4\nFormat profile                           : Base Media\nCodec ID                                 : isom\nFile size                                : 1.23 GiB\nDuration                                 : 1h 47mn\nOverall bit rate mode                    : Constant\nOverall bit rate                         : 1 633 Kbps\nMovie name                               : SHADOW_OF_A_DOUBT\nGenre                                    : Thriller\nWriting application                      : Lavf54.6.100\n\nVideo\nID                                       : 1\nFormat                                   : MPEG-4 Visual\nFormat settings, BVOP                    : No\nFormat settings, QPel                    : No\nFormat settings, GMC                     : No warppoints\nFormat settings, Matrix                  : Default (H.263)\nCodec ID                                 : 20\nDuration                                 : 1h 47mn\nBit rate mode                            : Constant\nBit rate                                 : 1 499 Kbps\nWidth                                    : 720 pixels\nHeight                                   : 540 pixels\nDisplay aspect ratio                     : 4:3\nFrame rate mode                          : Constant\nFrame rate                               : 29.970 fps\nColor space                              : YUV\nChroma subsampling                       : 4:2:0\nBit depth                                : 8 bits\nScan type                                : Progressive\nCompression mode                         : Lossy\nBits/(Pixel*Frame)                       : 0.129\nStream size                              : 1.13 GiB (92%)\nWriting library                          : Lavc54.23.100\n\nAudio\nID                                       : 2\nFormat                                   : MPEG Audio\nFormat version                           : Version 1\nFormat profile                           : Layer 3\nCodec ID                                 : 6B\nDuration                                 : 1h 47mn\nBit rate mode                            : Constant\nBit rate                                 : 128 Kbps\nChannel(s)                               : 2 channels\nSampling rate                            : 44.1 KHz\nCompression mode                         : Lossy\nStream size                              : 98.8 MiB (8%)\nWriting library                          : LAME3.99.5","torrent":{"xt":"urn:btih:f3f62c76012e64c1bd16f2bea9698b8aa7d8c31a","amp;dn":"Shadow+of+a+Doubt%281943%29Mp-4%5BDaScubaDude%5D","amp;tr":["udp%3A%2F%2Ftracker.openbittorrent.com%3A80","udp%3A%2F%2Fopen.demonii.com%3A1337","udp%3A%2F%2Ftracker.coppersurfer.tk%3A6969","udp%3A%2F%2Fexodus.desync.com%3A6969"],"infoHash":"f3f62c76012e64c1bd16f2bea9698b8aa7d8c31a","infoHashBuffer":{"type":"Buffer","data":[243,246,44,118,1,46,100,193,189,22,242,190,169,105,139,138,167,216,195,26]},"announce":[],"urlList":[]}}